<?xml version="1.0" standalone="no"?>
<!DOCTYPE svg PUBLIC "-//W3C//DTD SVG 20010904//EN"
 "http://www.w3.org/TR/2001/REC-SVG-20010904/DTD/svg10.dtd">
<svg version="1.0" xmlns="http://www.w3.org/2000/svg"
 width="1600.000000pt" height="1600.000000pt" viewBox="0 0 1600.000000 1600.000000"
 preserveAspectRatio="xMidYMid meet">
<metadata>
Created by potrace 1.14, written by Peter Selinger 2001-2017
</metadata>
<g transform="translate(0.000000,1600.000000) scale(0.100000,-0.100000)"
fill="#000000" stroke="none">
<path d="M6420 14493 c-196 -33 -361 -189 -407 -383 -10 -45 -13 -1087 -12
-5615 0 -5222 1 -5564 17 -5626 45 -171 186 -307 367 -354 52 -13 251 -15
1615 -15 1674 0 1599 -2 1717 50 52 23 61 30 138 105 67 66 115 152 134 240 7
35 10 1698 10 5610 0 4840 -2 5567 -15 5615 -8 30 -26 79 -41 109 -35 72 -143
180 -213 214 -125 60 -30 57 -1729 56 -856 -1 -1567 -4 -1581 -6z"/>
<path d="M11390 11486 c-178 -38 -324 -179 -371 -358 -18 -70 -19 -182 -19
-4137 0 -4448 -4 -4097 57 -4221 35 -70 132 -170 203 -208 123 -66 25 -62
1738 -62 1102 0 1566 3 1604 11 173 36 308 161 380 349 18 47 25 8126 8 8230
-32 187 -180 345 -371 395 -46 12 -295 15 -1614 14 -1166 0 -1574 -4 -1615
-13z"/>
<path d="M1380 9484 c-159 -42 -281 -149 -349 -307 l-26 -62 -3 -3065 c-2
-2282 0 -3083 8 -3135 32 -195 195 -364 388 -404 38 -8 521 -11 1610 -11 1693
0 1600 -3 1721 56 72 36 178 141 215 217 59 120 56 -96 53 3252 l-2 3080 -27
68 c-33 82 -71 138 -132 195 -54 51 -161 106 -233 121 -37 7 -536 11 -1610 10
-1329 0 -1566 -2 -1613 -15z"/>
</g>
</svg>
